# Blender v2.77 (sub 0) OBJ File: 'tower2.blend'
# www.blender.org
mtllib tower3.mtl
o top_Cube.004
v 1.076325 3.965956 -1.076324
v 1.076324 3.965956 1.076325
v -1.076325 3.965956 1.076324
v -1.076324 3.965956 -1.076324
v 1.076325 4.926139 -1.076324
v 1.076324 4.926139 1.076325
v -1.076325 4.926139 1.076324
v -1.076324 4.926139 -1.076324
v 1.076325 4.446047 -1.076324
v -1.076324 4.446047 -1.076324
v -0.538162 3.965956 -1.076324
v -0.538162 4.926139 -1.076324
v 1.076325 4.686093 -1.076324
v -1.076324 4.206001 -1.076324
v 0.538163 3.965956 -1.076324
v 0.538163 4.926139 -1.076324
v 1.076325 4.206001 -1.076324
v -1.076324 4.686093 -1.076324
v 0.538163 4.446047 -1.076324
v -0.538162 4.446047 -1.076324
v -0.538162 4.206001 -1.076324
v 0.538163 4.206001 -1.076324
v 0.538163 4.686093 -1.076324
v -0.538162 4.686093 -1.076324
v -0.538162 4.446047 -0.837246
v 0.538163 4.446047 -0.837246
v -0.538162 4.206001 -0.837246
v 0.538163 4.206001 -0.837246
v 0.538163 4.686093 -0.837246
v -0.538162 4.686093 -0.837246
v -1.076325 3.965956 -1.076324
v -1.076324 3.965956 1.076325
v 1.076325 3.965956 1.076324
v 1.076324 3.965956 -1.076324
v -1.076325 4.926139 -1.076324
v -1.076324 4.926139 1.076325
v 1.076325 4.926139 1.076324
v 1.076324 4.926139 -1.076324
v 0.000000 3.965956 -1.076324
v 0.000000 4.926139 -1.076324
v -1.076325 4.446047 -1.076324
v 1.076324 4.446047 -1.076324
v 0.538162 3.965956 -1.076324
v 0.538162 4.926139 -1.076324
v -1.076325 4.686093 -1.076324
v 1.076324 4.206001 -1.076324
v -0.538163 3.965956 -1.076324
v -0.538163 4.926139 -1.076324
v -1.076325 4.206001 -1.076324
v 1.076324 4.686093 -1.076324
v 0.000000 4.686093 -1.076324
v 0.000000 4.206001 -1.076324
v -0.538163 4.446047 -1.076324
v 0.538162 4.446047 -1.076324
v 0.538162 4.206001 -1.076324
v -0.538163 4.206001 -1.076324
v -0.538163 4.686093 -1.076324
v 0.538162 4.686093 -1.076324
v 0.000000 4.206001 -0.837246
v 0.538162 4.446047 -0.837246
v 0.000000 4.686093 -0.837246
v -0.538163 4.446047 -0.837246
v 0.538162 4.206001 -0.837246
v -0.538163 4.206001 -0.837246
v -0.538163 4.686093 -0.837246
v 0.538162 4.686093 -0.837246
vn 1.0000 0.0000 0.0000
vn -1.0000 0.0000 -0.0000
vn 0.0000 0.0000 -1.0000
vn -0.0000 0.0000 1.0000
vn 0.0000 -1.0000 0.0000
vn 0.0000 1.0000 0.0000
usemtl topMat
s off
f 9//1 13//1 6//1
f 3//2 10//2 14//2
f 18//3 12//3 24//3
f 2//4 7//4 3//4
f 51//3 16//3 23//3
f 23//5 61//5 51//5
f 14//3 20//3 21//3
f 21//6 59//6 52//6
f 11//3 52//3 39//3
f 4//3 21//3 11//3
f 22//3 9//3 17//3
f 15//3 17//3 1//3
f 39//3 22//3 15//3
f 23//3 5//3 13//3
f 19//3 13//3 9//3
f 24//1 25//1 20//1
f 24//3 40//3 51//3
f 22//2 26//2 19//2
f 10//3 24//3 20//3
f 20//1 27//1 21//1
f 19//2 29//2 23//2
f 52//6 28//6 22//6
f 24//5 61//5 30//5
f 36//2 41//2 32//2
f 42//1 37//1 33//1
f 44//3 50//3 58//3
f 37//4 32//4 33//4
f 48//3 51//3 57//3
f 61//5 57//5 51//5
f 54//3 46//3 55//3
f 59//6 55//6 52//6
f 52//3 43//3 39//3
f 55//3 34//3 43//3
f 41//3 56//3 49//3
f 49//3 47//3 31//3
f 56//3 39//3 47//3
f 35//3 57//3 45//3
f 45//3 53//3 41//3
f 60//2 58//2 54//2
f 40//3 58//3 51//3
f 62//1 56//1 53//1
f 58//3 42//3 54//3
f 63//2 54//2 55//2
f 65//1 53//1 57//1
f 64//6 52//6 56//6
f 66//5 51//5 58//5
f 6//1 2//1 9//1
f 17//1 9//1 2//1
f 2//1 1//1 17//1
f 13//1 5//1 6//1
f 14//2 4//2 3//2
f 3//2 7//2 10//2
f 18//2 10//2 7//2
f 7//2 8//2 18//2
f 18//3 8//3 12//3
f 2//4 6//4 7//4
f 51//3 40//3 16//3
f 23//5 29//5 61//5
f 14//3 10//3 20//3
f 21//6 27//6 59//6
f 11//3 21//3 52//3
f 4//3 14//3 21//3
f 22//3 19//3 9//3
f 15//3 22//3 17//3
f 39//3 52//3 22//3
f 23//3 16//3 5//3
f 19//3 23//3 13//3
f 24//1 30//1 25//1
f 24//3 12//3 40//3
f 22//2 28//2 26//2
f 10//3 18//3 24//3
f 20//1 25//1 27//1
f 19//2 26//2 29//2
f 52//6 59//6 28//6
f 24//5 51//5 61//5
f 31//2 32//2 49//2
f 36//2 35//2 45//2
f 41//2 49//2 32//2
f 36//2 45//2 41//2
f 33//1 34//1 46//1
f 42//1 50//1 37//1
f 33//1 46//1 42//1
f 38//1 37//1 50//1
f 44//3 38//3 50//3
f 37//4 36//4 32//4
f 48//3 40//3 51//3
f 61//5 65//5 57//5
f 54//3 42//3 46//3
f 59//6 63//6 55//6
f 52//3 55//3 43//3
f 55//3 46//3 34//3
f 41//3 53//3 56//3
f 49//3 56//3 47//3
f 56//3 52//3 39//3
f 35//3 48//3 57//3
f 45//3 57//3 53//3
f 60//2 66//2 58//2
f 40//3 44//3 58//3
f 62//1 64//1 56//1
f 58//3 50//3 42//3
f 63//2 60//2 54//2
f 65//1 62//1 53//1
f 64//6 59//6 52//6
f 66//5 61//5 51//5
o window_Cube.003
v -0.538162 4.446047 -0.837246
v 0.538163 4.446047 -0.837246
v -0.538162 4.206001 -0.837246
v 0.538163 4.206001 -0.837246
v 0.538163 4.686093 -0.837246
v -0.538162 4.686093 -0.837246
v 0.000000 4.206001 -0.837246
v 0.000000 4.446047 -0.837246
v 0.538162 4.446047 -0.837246
v 0.000000 4.686093 -0.837246
v -0.538163 4.446047 -0.837246
v 0.538162 4.206001 -0.837246
v -0.538163 4.206001 -0.837246
v -0.538163 4.686093 -0.837246
v 0.538162 4.686093 -0.837246
vn 0.0000 0.0000 -1.0000
usemtl windowMat
s off
f 73//7 68//7 70//7
f 69//7 74//7 73//7
f 74//7 71//7 68//7
f 67//7 76//7 74//7
f 77//7 73//7 79//7
f 74//7 78//7 73//7
f 80//7 74//7 77//7
f 76//7 75//7 74//7
f 73//7 74//7 68//7
f 69//7 67//7 74//7
f 74//7 76//7 71//7
f 67//7 72//7 76//7
f 77//7 74//7 73//7
f 74//7 75//7 78//7
f 80//7 76//7 74//7
f 76//7 81//7 75//7
o roff_Cube.002
v 1.000000 5.248816 -0.999999
v 0.999999 5.248816 1.000001
v -1.000000 5.248816 1.000000
v -1.000000 5.248816 -1.000000
v 0.000000 6.800000 0.000000
vn 0.0000 0.5418 -0.8405
vn -0.0000 0.5418 0.8405
vn 0.8405 0.5418 0.0000
vn -0.8405 0.5418 -0.0000
usemtl rofffMat
s off
f 82//8 85//8 86//8
f 84//9 83//9 86//9
f 83//10 82//10 86//10
f 85//11 84//11 86//11
o base_Cube.001
v 1.383167 -0.043677 -1.383167
v 1.383167 -0.043677 1.383167
v -1.383168 -0.043677 1.383167
v -1.383167 -0.043677 -1.383168
v 1.095001 0.963174 -1.095001
v 1.095001 0.963174 1.095001
v -1.095001 0.963174 1.095001
v -1.095001 0.963174 -1.095002
vn 0.0000 -1.0000 0.0000
vn 0.0000 0.2752 -0.9614
vn -0.9614 0.2752 -0.0000
vn -0.0000 0.2752 0.9614
vn 0.9614 0.2752 0.0000
usemtl baseMat
s off
f 88//12 90//12 87//12
f 87//13 94//13 91//13
f 93//14 90//14 89//14
f 92//15 89//15 88//15
f 91//16 88//16 87//16
f 88//12 89//12 90//12
f 87//13 90//13 94//13
f 93//14 94//14 90//14
f 92//15 93//15 89//15
f 91//16 92//16 88//16
o body_Cube
v 1.076325 3.965956 -1.076324
v 1.076324 3.965956 1.076325
v -1.076325 3.965956 1.076324
v -1.076324 3.965956 -1.076324
v 1.095001 0.963174 -1.095001
v 1.095001 0.963174 1.095001
v -1.095001 0.963174 1.095001
v -1.095001 0.963174 -1.095002
v 1.000000 1.217116 -1.000000
v 1.000000 1.217116 1.000000
v -1.000000 1.217116 1.000000
v -1.000000 1.217116 -1.000000
v 1.000000 3.598231 -1.000000
v 0.999999 3.598231 1.000000
v -1.000000 3.598231 1.000000
v -1.000000 3.598231 -1.000000
v 1.076325 4.926139 -1.076324
v 1.076324 4.926139 1.076325
v -1.076325 4.926139 1.076324
v -1.076324 4.926139 -1.076324
v 1.000000 5.248816 -0.999999
v 0.999999 5.248816 1.000001
v -1.000000 5.248816 1.000000
v -1.000000 5.248816 -1.000000
v -0.538162 3.965956 -1.076324
v -0.538162 4.926139 -1.076324
v 0.538163 3.965956 -1.076324
v 0.538163 4.926139 -1.076324
v -1.076325 3.965956 -1.076324
v -1.076324 3.965956 1.076325
v 1.076325 3.965956 1.076324
v 1.076324 3.965956 -1.076324
v -1.095001 0.963174 -1.095001
v -1.095001 0.963174 1.095001
v 1.095001 0.963174 1.095001
v 1.095001 0.963174 -1.095002
v -1.000000 1.217116 -1.000000
v -1.000000 1.217116 1.000000
v 1.000000 1.217116 1.000000
v 1.000000 1.217116 -1.000000
v -1.000000 3.598231 -1.000000
v -0.999999 3.598231 1.000000
v 1.000000 3.598231 1.000000
v 1.000000 3.598231 -1.000000
v -1.076325 4.926139 -1.076324
v -1.076324 4.926139 1.076325
v 1.076325 4.926139 1.076324
v 1.076324 4.926139 -1.076324
v -1.000000 5.248816 -0.999999
v -0.999999 5.248816 1.000001
v 1.000000 5.248816 1.000000
v 1.000000 5.248816 -1.000000
v 0.000000 3.965956 -1.076324
v 0.000000 4.926139 -1.076324
v 0.538162 3.965956 -1.076324
v 0.538162 4.926139 -1.076324
v -0.538163 3.965956 -1.076324
v -0.538163 4.926139 -1.076324
vn 0.9791 -0.2032 0.0000
vn -0.0000 -0.2032 0.9791
vn -0.9791 -0.2032 -0.0000
vn 0.0000 0.3504 -0.9366
vn 0.0000 0.0000 -1.0000
vn -0.9366 0.3504 -0.0000
vn -0.0000 0.3504 0.9366
vn 0.9366 0.3504 0.0000
vn 0.0000 -0.2032 -0.9791
vn -1.0000 -0.0000 -0.0000
vn -0.0000 -0.0000 1.0000
vn 1.0000 -0.0000 0.0000
vn -0.9731 0.2302 -0.0000
vn 0.0000 0.2302 -0.9731
vn -0.0000 0.2302 0.9731
vn 0.9731 0.2302 0.0000
usemtl bodyMat
s off
f 95//17 108//17 107//17
f 96//18 109//18 108//18
f 97//19 110//19 109//19
f 99//20 106//20 103//20
f 103//21 110//21 107//21
f 105//22 102//22 101//22
f 104//23 101//23 100//23
f 103//24 100//24 99//24
f 110//25 119//25 147//25
f 109//26 106//26 105//26
f 108//27 105//27 104//27
f 107//28 104//28 103//28
f 113//29 118//29 114//29
f 120//30 118//30 148//30
f 112//31 117//31 113//31
f 111//32 116//32 112//32
f 136//19 123//19 135//19
f 137//18 124//18 136//18
f 138//17 125//17 137//17
f 134//20 127//20 131//20
f 138//21 131//21 135//21
f 130//24 133//24 129//24
f 128//23 133//23 132//23
f 128//22 131//22 127//22
f 147//25 149//25 138//25
f 134//28 137//28 133//28
f 133//27 136//27 132//27
f 132//26 135//26 131//26
f 146//32 141//32 142//32
f 146//30 150//30 148//30
f 145//31 140//31 141//31
f 144//29 139//29 140//29
f 95//17 96//17 108//17
f 96//18 97//18 109//18
f 97//19 98//19 110//19
f 99//20 102//20 106//20
f 103//21 106//21 110//21
f 105//22 106//22 102//22
f 104//23 105//23 101//23
f 103//24 104//24 100//24
f 121//25 95//25 107//25
f 107//25 110//25 147//25
f 98//25 119//25 110//25
f 147//25 121//25 107//25
f 109//26 110//26 106//26
f 108//27 109//27 105//27
f 107//28 108//28 104//28
f 113//29 117//29 118//29
f 115//30 111//30 122//30
f 115//30 122//30 148//30
f 114//30 118//30 120//30
f 115//30 148//30 118//30
f 112//31 116//31 117//31
f 111//32 115//32 116//32
f 136//19 124//19 123//19
f 137//18 125//18 124//18
f 138//17 126//17 125//17
f 134//20 130//20 127//20
f 138//21 134//21 131//21
f 130//24 134//24 133//24
f 128//23 129//23 133//23
f 128//22 132//22 131//22
f 135//25 123//25 151//25
f 151//25 147//25 135//25
f 149//25 126//25 138//25
f 138//25 135//25 147//25
f 134//28 138//28 137//28
f 133//27 137//27 136//27
f 132//26 136//26 135//26
f 146//32 145//32 141//32
f 152//30 139//30 143//30
f 143//30 146//30 148//30
f 146//30 142//30 150//30
f 148//30 152//30 143//30
f 145//31 144//31 140//31
f 144//29 143//29 139//29
