# Blender v2.77 (sub 0) OBJ File: 'lazer3.blend'
# www.blender.org
mtllib lazerWarning.mtl
o dimonda_Icosphere
v -0.003102 1.714322 -0.000000
v 0.055418 1.781006 0.042517
v -0.025454 1.781006 0.068794
v -0.075437 1.781007 -0.000000
v -0.025454 1.781006 -0.068794
v 0.055418 1.781006 -0.042517
v 0.071279 2.127285 0.228926
v -0.197839 2.127285 0.141483
v -0.197839 2.127285 -0.141483
v 0.071279 2.127285 -0.228926
v -0.003102 2.173976 0.000000
v -0.008392 1.722703 0.016280
v 0.010747 1.722703 0.010062
v 0.018157 1.770062 0.065427
v 0.065692 1.770063 -0.000000
v 0.010747 1.722703 -0.010062
v -0.020220 1.722703 -0.000000
v -0.058758 1.770063 0.040436
v -0.008392 1.722703 -0.016280
v -0.058758 1.770063 -0.040436
v 0.018157 1.770062 -0.065427
v 0.252846 2.048508 0.083161
v -0.003102 2.048508 0.269120
v 0.155082 2.048508 0.217722
v -0.259051 2.048508 0.083161
v -0.161287 2.048508 0.217722
v -0.161287 2.048508 -0.217722
v -0.259051 2.048508 -0.083161
v 0.155082 2.048508 -0.217722
v -0.003102 2.048508 -0.269120
v 0.182103 2.133917 0.134559
v -0.073845 2.133917 0.217721
v -0.232028 2.133917 0.000000
v -0.073845 2.133917 -0.217721
v 0.182103 2.133917 -0.134559
v 0.040618 2.161361 0.134559
v 0.138382 2.161361 0.000000
v -0.117565 2.161361 0.083161
v -0.117565 2.161361 -0.083161
v 0.040618 2.161361 -0.134559
v 0.252846 2.048508 -0.083161
v 0.237605 2.127285 0.000000
vn 0.1600 -0.8555 0.4924
vn 0.6499 -0.6832 0.3329
vn -0.4189 -0.8555 0.3043
vn -0.4189 -0.8555 -0.3043
vn 0.1600 -0.8555 -0.4924
vn 0.7348 -0.5925 0.3301
vn -0.0868 -0.5925 0.8009
vn -0.7885 -0.5925 0.1649
vn -0.4005 -0.5925 -0.6990
vn 0.5410 -0.5925 -0.5969
vn 0.6670 -0.5659 0.4846
vn -0.2548 -0.5659 0.7841
vn -0.8245 -0.5659 0.0000
vn -0.2548 -0.5659 -0.7841
vn 0.6670 -0.5659 -0.4846
vn 0.1828 0.9422 0.2808
vn -0.2106 0.9422 0.2606
vn -0.3129 0.9422 -0.1198
vn 0.0172 0.9422 -0.3346
vn 0.3236 0.9422 -0.0870
vn 0.0886 0.9940 -0.0644
vn 0.1886 0.9724 -0.1370
vn 0.1828 0.9422 -0.2808
vn -0.0339 0.9940 -0.1042
vn -0.0720 0.9724 -0.2217
vn -0.2106 0.9422 -0.2606
vn -0.1095 0.9940 0.0000
vn -0.2332 0.9724 0.0000
vn -0.3129 0.9422 0.1198
vn -0.0339 0.9940 0.1042
vn -0.0720 0.9724 0.2217
vn 0.0172 0.9422 0.3346
vn 0.0886 0.9940 0.0644
vn 0.1886 0.9724 0.1370
vn 0.3236 0.9422 0.0870
vn 0.8154 0.4874 -0.3123
vn 0.7713 0.3016 -0.5604
vn 0.5490 0.4874 -0.6790
vn -0.0451 0.4874 -0.8720
vn -0.2946 0.3016 -0.9068
vn -0.4761 0.4874 -0.7319
vn -0.8432 0.4874 -0.2266
vn -0.9534 0.3016 0.0000
vn -0.8432 0.4874 0.2266
vn -0.4761 0.4874 0.7319
vn -0.2946 0.3016 0.9068
vn -0.0451 0.4874 0.8720
vn 0.5490 0.4874 0.6790
vn 0.7713 0.3016 0.5604
vn 0.8154 0.4874 0.3123
vn 0.3034 0.1899 -0.9337
vn 0.2565 -0.5578 -0.7893
vn -0.0868 -0.5925 -0.8009
vn -0.7943 0.1899 -0.5771
vn -0.6714 -0.5578 -0.4878
vn -0.7885 -0.5925 -0.1649
vn -0.7943 0.1899 0.5771
vn -0.6714 -0.5578 0.4878
vn -0.4005 -0.5925 0.6990
vn 0.3034 0.1899 0.9337
vn 0.2565 -0.5578 0.7893
vn 0.5410 -0.5925 0.5969
vn 0.8299 -0.5578 0.0000
vn 0.7348 -0.5925 -0.3301
vn 0.5174 -0.6832 -0.5152
vn 0.2018 -0.7575 -0.6209
vn -0.1158 -0.6832 -0.7210
vn -0.3301 -0.6832 -0.6513
vn -0.5282 -0.7575 -0.3838
vn -0.7214 -0.6832 -0.1127
vn -0.7214 -0.6832 0.1127
vn -0.5282 -0.7575 0.3838
vn -0.3301 -0.6832 0.6513
vn 0.6499 -0.6832 -0.3329
vn 0.6529 -0.7575 0.0000
vn 0.5177 -0.8555 0.0000
vn -0.1158 -0.6832 0.7210
vn 0.2018 -0.7575 0.6209
vn 0.5174 -0.6832 0.5152
vn 0.9818 0.1899 0.0000
usemtl Material.001
s off
f 1//1 13//1 12//1
f 2//2 13//2 15//2
f 1//3 12//3 17//3
f 1//4 17//4 19//4
f 1//5 19//5 16//5
f 2//6 15//6 22//6
f 3//7 14//7 23//7
f 4//8 18//8 25//8
f 5//9 20//9 27//9
f 6//10 21//10 29//10
f 2//11 22//11 24//11
f 3//12 23//12 26//12
f 4//13 25//13 28//13
f 5//14 27//14 30//14
f 6//15 29//15 41//15
f 7//16 31//16 36//16
f 8//17 32//17 38//17
f 9//18 33//18 39//18
f 10//19 34//19 40//19
f 42//20 35//20 37//20
f 37//21 40//21 11//21
f 37//22 35//22 40//22
f 35//23 10//23 40//23
f 40//24 39//24 11//24
f 40//25 34//25 39//25
f 34//26 9//26 39//26
f 39//27 38//27 11//27
f 39//28 33//28 38//28
f 33//29 8//29 38//29
f 38//30 36//30 11//30
f 38//31 32//31 36//31
f 32//32 7//32 36//32
f 36//33 37//33 11//33
f 36//34 31//34 37//34
f 31//35 42//35 37//35
f 41//36 35//36 42//36
f 41//37 29//37 35//37
f 29//38 10//38 35//38
f 30//39 34//39 10//39
f 30//40 27//40 34//40
f 27//41 9//41 34//41
f 28//42 33//42 9//42
f 28//43 25//43 33//43
f 25//44 8//44 33//44
f 26//45 32//45 8//45
f 26//46 23//46 32//46
f 23//47 7//47 32//47
f 24//48 31//48 7//48
f 24//49 22//49 31//49
f 22//50 42//50 31//50
f 29//51 30//51 10//51
f 29//52 21//52 30//52
f 21//53 5//53 30//53
f 27//54 28//54 9//54
f 27//55 20//55 28//55
f 20//56 4//56 28//56
f 25//57 26//57 8//57
f 25//58 18//58 26//58
f 18//59 3//59 26//59
f 23//60 24//60 7//60
f 23//61 14//61 24//61
f 14//62 2//62 24//62
f 22//63 15//63 41//63
f 15//64 6//64 41//64
f 16//65 21//65 6//65
f 16//66 19//66 21//66
f 19//67 5//67 21//67
f 19//68 20//68 5//68
f 19//69 17//69 20//69
f 17//70 4//70 20//70
f 17//71 18//71 4//71
f 17//72 12//72 18//72
f 12//73 3//73 18//73
f 15//74 16//74 6//74
f 15//75 13//75 16//75
f 13//76 1//76 16//76
f 12//77 14//77 3//77
f 12//78 13//78 14//78
f 13//79 2//79 14//79
f 41//80 42//80 22//80
