# Blender v2.77 (sub 0) OBJ File: 'coin2.blend'
# www.blender.org
mtllib coin2.mtl
o coin2_Cylinder.001
v 0.100000 1.000000 -1.000000
v 0.100000 0.804910 -0.980785
v 0.100000 0.617317 -0.923880
v 0.100000 0.444430 -0.831470
v 0.100000 0.292893 -0.707107
v 0.100000 0.168530 -0.555570
v 0.100000 0.076120 -0.382683
v 0.100000 0.019215 -0.195090
v 0.100000 0.000000 -0.000000
v 0.100000 0.019215 0.195090
v 0.100000 0.076120 0.382683
v 0.100000 0.168530 0.555570
v 0.100000 0.292893 0.707107
v 0.100000 0.444430 0.831470
v 0.100000 0.617317 0.923880
v 0.100000 0.804910 0.980785
v 0.100000 1.000000 1.000000
v 0.100000 1.195091 0.980785
v 0.100000 1.382684 0.923879
v 0.100000 1.555571 0.831469
v 0.100000 1.707107 0.707106
v 0.100000 1.831470 0.555570
v 0.100000 1.923880 0.382683
v 0.100000 1.980785 0.195089
v 0.100000 2.000000 -0.000001
v 0.100000 1.980785 -0.195091
v 0.100000 1.923879 -0.382684
v 0.100000 1.831469 -0.555571
v 0.100000 1.707106 -0.707108
v 0.100000 1.555569 -0.831470
v 0.100000 1.382682 -0.923880
v 0.100000 1.195089 -0.980786
vn 1.0000 -0.0000 0.0000
usemtl Material.002
s off
f 19//1 11//1 27//1
f 3//1 2//1 31//1
f 1//1 32//1 31//1
f 31//1 30//1 29//1
f 29//1 28//1 27//1
f 27//1 26//1 25//1
f 25//1 24//1 27//1
f 23//1 22//1 19//1
f 21//1 20//1 19//1
f 19//1 18//1 17//1
f 17//1 16//1 15//1
f 15//1 14//1 13//1
f 13//1 12//1 11//1
f 11//1 10//1 9//1
f 9//1 8//1 11//1
f 7//1 6//1 5//1
f 5//1 4//1 3//1
f 2//1 1//1 31//1
f 31//1 29//1 3//1
f 27//1 24//1 23//1
f 22//1 21//1 19//1
f 19//1 17//1 11//1
f 15//1 13//1 11//1
f 11//1 8//1 7//1
f 7//1 5//1 11//1
f 3//1 29//1 27//1
f 27//1 23//1 19//1
f 17//1 15//1 11//1
f 11//1 5//1 3//1
f 3//1 27//1 11//1
o coin1_Cylinder
v -0.100000 1.000000 -1.000000
v 0.100000 1.000000 -1.000000
v -0.100000 0.804910 -0.980785
v 0.100000 0.804910 -0.980785
v -0.100000 0.617317 -0.923880
v 0.100000 0.617317 -0.923880
v -0.100000 0.444430 -0.831470
v 0.100000 0.444430 -0.831470
v -0.100000 0.292893 -0.707107
v 0.100000 0.292893 -0.707107
v -0.100000 0.168530 -0.555570
v 0.100000 0.168530 -0.555570
v -0.100000 0.076120 -0.382683
v 0.100000 0.076120 -0.382683
v -0.100000 0.019215 -0.195090
v 0.100000 0.019215 -0.195090
v -0.100000 0.000000 -0.000000
v 0.100000 0.000000 -0.000000
v -0.100000 0.019215 0.195090
v 0.100000 0.019215 0.195090
v -0.100000 0.076120 0.382683
v 0.100000 0.076120 0.382683
v -0.100000 0.168530 0.555570
v 0.100000 0.168530 0.555570
v -0.100000 0.292893 0.707107
v 0.100000 0.292893 0.707107
v -0.100000 0.444430 0.831470
v 0.100000 0.444430 0.831470
v -0.100000 0.617317 0.923880
v 0.100000 0.617317 0.923880
v -0.100000 0.804910 0.980785
v 0.100000 0.804910 0.980785
v -0.100000 1.000000 1.000000
v 0.100000 1.000000 1.000000
v -0.100000 1.195091 0.980785
v 0.100000 1.195091 0.980785
v -0.100000 1.382684 0.923879
v 0.100000 1.382684 0.923879
v -0.100000 1.555571 0.831469
v 0.100000 1.555571 0.831469
v -0.100000 1.707107 0.707106
v 0.100000 1.707107 0.707106
v -0.100000 1.831470 0.555570
v 0.100000 1.831470 0.555570
v -0.100000 1.923880 0.382683
v 0.100000 1.923880 0.382683
v -0.100000 1.980785 0.195089
v 0.100000 1.980785 0.195089
v -0.100000 2.000000 -0.000001
v 0.100000 2.000000 -0.000001
v -0.100000 1.980785 -0.195091
v 0.100000 1.980785 -0.195091
v -0.100000 1.923879 -0.382684
v 0.100000 1.923879 -0.382684
v -0.100000 1.831469 -0.555571
v 0.100000 1.831469 -0.555571
v -0.100000 1.707106 -0.707108
v 0.100000 1.707106 -0.707108
v -0.100000 1.555569 -0.831470
v 0.100000 1.555569 -0.831470
v -0.100000 1.382682 -0.923880
v 0.100000 1.382682 -0.923880
v -0.100000 1.195089 -0.980786
v 0.100000 1.195089 -0.980786
vn 0.0000 -0.0980 -0.9952
vn 0.0000 -0.2903 -0.9569
vn 0.0000 -0.4714 -0.8819
vn 0.0000 -0.6344 -0.7730
vn 0.0000 -0.7730 -0.6344
vn 0.0000 -0.8819 -0.4714
vn 0.0000 -0.9569 -0.2903
vn 0.0000 -0.9952 -0.0980
vn 0.0000 -0.9952 0.0980
vn 0.0000 -0.9569 0.2903
vn 0.0000 -0.8819 0.4714
vn 0.0000 -0.7730 0.6344
vn 0.0000 -0.6344 0.7730
vn 0.0000 -0.4714 0.8819
vn 0.0000 -0.2903 0.9569
vn 0.0000 -0.0980 0.9952
vn 0.0000 0.0980 0.9952
vn 0.0000 0.2903 0.9569
vn 0.0000 0.4714 0.8819
vn 0.0000 0.6344 0.7730
vn 0.0000 0.7730 0.6344
vn 0.0000 0.8819 0.4714
vn 0.0000 0.9569 0.2903
vn 0.0000 0.9952 0.0980
vn 0.0000 0.9952 -0.0980
vn 0.0000 0.9569 -0.2903
vn 0.0000 0.8819 -0.4714
vn 0.0000 0.7730 -0.6344
vn 0.0000 0.6344 -0.7730
vn 0.0000 0.4714 -0.8819
vn 0.0000 0.2903 -0.9569
vn 0.0000 0.0980 -0.9952
vn -1.0000 0.0000 0.0000
usemtl Material.001
s off
f 34//2 35//2 33//2
f 36//3 37//3 35//3
f 38//4 39//4 37//4
f 40//5 41//5 39//5
f 42//6 43//6 41//6
f 44//7 45//7 43//7
f 46//8 47//8 45//8
f 48//9 49//9 47//9
f 50//10 51//10 49//10
f 51//11 54//11 53//11
f 54//12 55//12 53//12
f 55//13 58//13 57//13
f 58//14 59//14 57//14
f 60//15 61//15 59//15
f 62//16 63//16 61//16
f 64//17 65//17 63//17
f 66//18 67//18 65//18
f 68//19 69//19 67//19
f 69//20 72//20 71//20
f 72//21 73//21 71//21
f 73//22 76//22 75//22
f 76//23 77//23 75//23
f 78//24 79//24 77//24
f 80//25 81//25 79//25
f 82//26 83//26 81//26
f 84//27 85//27 83//27
f 86//28 87//28 85//28
f 88//29 89//29 87//29
f 90//30 91//30 89//30
f 92//31 93//31 91//31
f 94//32 95//32 93//32
f 96//33 33//33 95//33
f 63//34 79//34 95//34
f 34//2 36//2 35//2
f 36//3 38//3 37//3
f 38//4 40//4 39//4
f 40//5 42//5 41//5
f 42//6 44//6 43//6
f 44//7 46//7 45//7
f 46//8 48//8 47//8
f 48//9 50//9 49//9
f 50//10 52//10 51//10
f 51//11 52//11 54//11
f 54//12 56//12 55//12
f 55//13 56//13 58//13
f 58//14 60//14 59//14
f 60//15 62//15 61//15
f 62//16 64//16 63//16
f 64//17 66//17 65//17
f 66//18 68//18 67//18
f 68//19 70//19 69//19
f 69//20 70//20 72//20
f 72//21 74//21 73//21
f 73//22 74//22 76//22
f 76//23 78//23 77//23
f 78//24 80//24 79//24
f 80//25 82//25 81//25
f 82//26 84//26 83//26
f 84//27 86//27 85//27
f 86//28 88//28 87//28
f 88//29 90//29 89//29
f 90//30 92//30 91//30
f 92//31 94//31 93//31
f 94//32 96//32 95//32
f 96//33 34//33 33//33
f 95//34 33//34 35//34
f 35//34 37//34 39//34
f 39//34 41//34 43//34
f 43//34 45//34 39//34
f 47//34 49//34 51//34
f 51//34 53//34 55//34
f 55//34 57//34 63//34
f 59//34 61//34 63//34
f 63//34 65//34 67//34
f 67//34 69//34 71//34
f 71//34 73//34 75//34
f 75//34 77//34 79//34
f 79//34 81//34 83//34
f 83//34 85//34 79//34
f 87//34 89//34 95//34
f 91//34 93//34 95//34
f 95//34 35//34 47//34
f 39//34 45//34 47//34
f 47//34 51//34 63//34
f 57//34 59//34 63//34
f 63//34 67//34 79//34
f 71//34 75//34 79//34
f 79//34 85//34 87//34
f 89//34 91//34 95//34
f 35//34 39//34 47//34
f 51//34 55//34 63//34
f 67//34 71//34 79//34
f 79//34 87//34 95//34
f 95//34 47//34 63//34
